ply
format ascii 1.0
comment Created by Blender 2.78 (sub 0) - www.blender.org, source file: ''
element vertex 424
property float x
property float y
property float z
property float nx
property float ny
property float nz
element face 188
property list uchar uint vertex_indices
end_header
0.000000 29.999998 30.000002 0.049068 -0.000000 0.998795
0.000000 -30.000002 29.999998 0.049068 -0.000000 0.998795
2.940514 -30.000002 29.855539 0.049068 -0.000000 0.998795
2.940514 29.999998 29.855543 0.049068 -0.000000 0.998795
2.940514 29.999998 29.855543 0.146731 -0.000000 0.989176
2.940514 -30.000002 29.855539 0.146731 -0.000000 0.989176
5.852710 -30.000002 29.423555 0.146731 -0.000000 0.989176
5.852710 29.999998 29.423559 0.146731 -0.000000 0.989176
5.852710 29.999998 29.423559 0.242980 -0.000000 0.970031
5.852710 -30.000002 29.423555 0.242980 -0.000000 0.970031
8.708540 -30.000002 28.708208 0.242980 -0.000000 0.970031
8.708540 29.999998 28.708212 0.242980 -0.000000 0.970031
8.708540 29.999998 28.708212 0.336890 -0.000000 0.941544
8.708540 -30.000002 28.708208 0.336890 -0.000000 0.941544
11.480504 -30.000002 27.716383 0.336890 -0.000000 0.941544
11.480504 29.999998 27.716387 0.336890 -0.000000 0.941544
11.480504 29.999998 27.716387 0.427555 -0.000000 0.903989
11.480504 -30.000002 27.716383 0.427555 -0.000000 0.903989
14.141902 -30.000002 26.457636 0.427555 -0.000000 0.903989
14.141902 29.999998 26.457640 0.427555 -0.000000 0.903989
14.141902 29.999998 26.457640 0.514103 -0.000000 0.857729
14.141902 -30.000002 26.457636 0.514103 -0.000000 0.857729
16.667107 -30.000002 24.944086 0.514103 -0.000000 0.857729
16.667107 29.999998 24.944090 0.514103 -0.000000 0.857729
16.667107 29.999998 24.944090 0.595699 -0.000000 0.803208
16.667107 -30.000002 24.944086 0.595699 -0.000000 0.803208
19.031797 -30.000002 23.190313 0.595699 -0.000000 0.803208
19.031797 29.999998 23.190317 0.595699 -0.000000 0.803208
19.031797 29.999998 23.190317 0.671559 -0.000000 0.740951
19.031797 -30.000002 23.190313 0.671559 -0.000000 0.740951
21.213203 -30.000000 21.213203 0.671559 -0.000000 0.740951
21.213203 30.000000 21.213207 0.671559 -0.000000 0.740951
21.213203 30.000000 21.213207 0.740951 -0.000000 0.671559
21.213203 -30.000000 21.213203 0.740951 -0.000000 0.671559
23.190313 -30.000000 19.031797 0.740951 -0.000000 0.671559
23.190313 30.000000 19.031801 0.740951 -0.000000 0.671559
23.190313 30.000000 19.031801 0.803207 -0.000000 0.595699
23.190313 -30.000000 19.031797 0.803207 -0.000000 0.595699
24.944088 -30.000000 16.667107 0.803207 -0.000000 0.595699
24.944088 30.000000 16.667110 0.803207 -0.000000 0.595699
24.944088 30.000000 16.667110 0.857729 -0.000000 0.514103
24.944088 -30.000000 16.667107 0.857729 -0.000000 0.514103
26.457638 -30.000000 14.141902 0.857729 -0.000000 0.514103
26.457638 30.000000 14.141904 0.857729 -0.000000 0.514103
26.457638 30.000000 14.141904 0.903989 -0.000000 0.427555
26.457638 -30.000000 14.141902 0.903989 -0.000000 0.427555
27.716385 -30.000000 11.480502 0.903989 -0.000000 0.427555
27.716385 30.000000 11.480504 0.903989 -0.000000 0.427555
27.716385 30.000000 11.480504 0.941544 -0.000000 0.336890
27.716385 -30.000000 11.480502 0.941544 -0.000000 0.336890
28.708210 -30.000000 8.708538 0.941544 -0.000000 0.336890
28.708210 30.000000 8.708540 0.941544 -0.000000 0.336890
28.708210 30.000000 8.708540 0.970031 -0.000000 0.242980
28.708210 -30.000000 8.708538 0.970031 -0.000000 0.242980
29.423559 -30.000000 5.852705 0.970031 -0.000000 0.242980
29.423559 30.000000 5.852708 0.970031 -0.000000 0.242980
29.423559 30.000000 5.852708 0.989177 -0.000000 0.146730
29.423559 -30.000000 5.852705 0.989177 -0.000000 0.146730
29.855541 -30.000000 2.940509 0.989177 -0.000000 0.146730
29.855541 30.000000 2.940512 0.989177 -0.000000 0.146730
29.855541 30.000000 2.940512 0.998795 -0.000000 0.049068
29.855541 -30.000000 2.940509 0.998795 -0.000000 0.049068
30.000000 -30.000000 -0.000006 0.998795 -0.000000 0.049068
30.000000 30.000000 -0.000004 0.998795 -0.000000 0.049068
30.000000 30.000000 -0.000004 0.998795 0.000000 -0.049068
30.000000 -30.000000 -0.000006 0.998795 0.000000 -0.049068
29.855541 -30.000000 -2.940522 0.998795 0.000000 -0.049068
29.855541 30.000000 -2.940519 0.998795 0.000000 -0.049068
29.855541 30.000000 -2.940519 0.989176 0.000000 -0.146731
29.855541 -30.000000 -2.940522 0.989176 0.000000 -0.146731
29.423557 -30.000000 -5.852718 0.989176 0.000000 -0.146731
29.423557 30.000000 -5.852715 0.989176 0.000000 -0.146731
29.423557 30.000000 -5.852715 0.970031 0.000000 -0.242981
29.423557 -30.000000 -5.852718 0.970031 0.000000 -0.242981
28.708206 -30.000000 -8.708549 0.970031 0.000000 -0.242981
28.708206 30.000000 -8.708548 0.970031 0.000000 -0.242981
28.708206 30.000000 -8.708548 0.941544 0.000000 -0.336890
28.708206 -30.000000 -8.708549 0.941544 0.000000 -0.336890
27.716381 -30.000000 -11.480513 0.941544 0.000000 -0.336890
27.716381 30.000000 -11.480511 0.941544 0.000000 -0.336890
27.716381 30.000000 -11.480511 0.903989 0.000000 -0.427555
27.716381 -30.000000 -11.480513 0.903989 0.000000 -0.427555
26.457634 -30.000000 -14.141912 0.903989 0.000000 -0.427555
26.457634 30.000000 -14.141911 0.903989 0.000000 -0.427555
26.457634 30.000000 -14.141911 0.857728 0.000000 -0.514103
26.457634 -30.000000 -14.141912 0.857728 0.000000 -0.514103
24.944082 -30.000000 -16.667118 0.857728 0.000000 -0.514103
24.944082 30.000000 -16.667114 0.857728 0.000000 -0.514103
24.944082 30.000000 -16.667114 0.803207 0.000000 -0.595700
24.944082 -30.000000 -16.667118 0.803207 0.000000 -0.595700
23.190306 -30.000000 -19.031811 0.803207 0.000000 -0.595700
23.190306 30.000000 -19.031807 0.803207 0.000000 -0.595700
23.190306 30.000000 -19.031807 0.740950 0.000000 -0.671560
23.190306 -30.000000 -19.031811 0.740950 0.000000 -0.671560
21.213192 -30.000000 -21.213215 0.740950 0.000000 -0.671560
21.213192 30.000000 -21.213211 0.740950 0.000000 -0.671560
21.213192 30.000000 -21.213211 0.671559 0.000000 -0.740951
21.213192 -30.000000 -21.213215 0.671559 0.000000 -0.740951
19.031786 -29.999998 -23.190325 0.671559 0.000000 -0.740951
19.031786 30.000002 -23.190321 0.671559 0.000000 -0.740951
19.031786 30.000002 -23.190321 0.595700 0.000000 -0.803207
19.031786 -29.999998 -23.190325 0.595700 0.000000 -0.803207
16.667093 -29.999998 -24.944101 0.595700 0.000000 -0.803207
16.667093 30.000002 -24.944098 0.595700 0.000000 -0.803207
16.667093 30.000002 -24.944098 0.514101 0.000000 -0.857729
16.667093 -29.999998 -24.944101 0.514101 0.000000 -0.857729
14.141886 -29.999998 -26.457647 0.514101 0.000000 -0.857729
14.141886 30.000002 -26.457644 0.514101 0.000000 -0.857729
14.141886 30.000002 -26.457644 0.427555 0.000000 -0.903989
14.141886 -29.999998 -26.457647 0.427555 0.000000 -0.903989
11.480485 -29.999998 -27.716396 0.427555 0.000000 -0.903989
11.480485 30.000002 -27.716393 0.427555 0.000000 -0.903989
11.480485 30.000002 -27.716393 0.336889 0.000000 -0.941544
11.480485 -29.999998 -27.716396 0.336889 0.000000 -0.941544
8.708521 -29.999998 -28.708218 0.336889 0.000000 -0.941544
8.708521 30.000002 -28.708214 0.336889 0.000000 -0.941544
8.708521 30.000002 -28.708214 0.242980 0.000000 -0.970031
8.708521 -29.999998 -28.708218 0.242980 0.000000 -0.970031
5.852688 -29.999998 -29.423565 0.242980 0.000000 -0.970031
5.852688 30.000002 -29.423561 0.242980 0.000000 -0.970031
5.852688 30.000002 -29.423561 0.146729 0.000000 -0.989177
5.852688 -29.999998 -29.423565 0.146729 0.000000 -0.989177
2.940491 -29.999998 -29.855545 0.146729 0.000000 -0.989177
2.940491 30.000002 -29.855541 0.146729 0.000000 -0.989177
2.940491 30.000002 -29.855541 0.049067 0.000000 -0.998796
2.940491 -29.999998 -29.855545 0.049067 0.000000 -0.998796
-0.000024 -29.999998 -30.000002 0.049067 0.000000 -0.998796
-0.000024 30.000002 -29.999998 0.049067 0.000000 -0.998796
-0.000024 30.000002 -29.999998 -0.049068 0.000000 -0.998795
-0.000024 -29.999998 -30.000002 -0.049068 0.000000 -0.998795
-2.940539 -29.999998 -29.855541 -0.049068 0.000000 -0.998795
-2.940539 30.000002 -29.855537 -0.049068 0.000000 -0.998795
-2.940539 30.000002 -29.855537 -0.146731 0.000000 -0.989176
-2.940539 -29.999998 -29.855541 -0.146731 0.000000 -0.989176
-5.852736 -29.999998 -29.423555 -0.146731 0.000000 -0.989176
-5.852736 30.000002 -29.423552 -0.146731 0.000000 -0.989176
-5.852736 30.000002 -29.423552 -0.242981 0.000000 -0.970031
-5.852736 -29.999998 -29.423555 -0.242981 0.000000 -0.970031
-8.708567 -29.999998 -28.708204 -0.242981 0.000000 -0.970031
-8.708567 30.000002 -28.708200 -0.242981 0.000000 -0.970031
-8.708567 30.000002 -28.708200 -0.336891 0.000000 -0.941544
-8.708567 -29.999998 -28.708204 -0.336891 0.000000 -0.941544
-11.480530 -29.999998 -27.716375 -0.336891 0.000000 -0.941544
-11.480530 30.000002 -27.716372 -0.336891 0.000000 -0.941544
-11.480530 30.000002 -27.716372 -0.427555 0.000000 -0.903989
-11.480530 -29.999998 -27.716375 -0.427555 0.000000 -0.903989
-14.141929 -29.999998 -26.457626 -0.427555 0.000000 -0.903989
-14.141929 30.000002 -26.457623 -0.427555 0.000000 -0.903989
-14.141929 30.000002 -26.457623 -0.514103 0.000000 -0.857728
-14.141929 -29.999998 -26.457626 -0.514103 0.000000 -0.857728
-16.667133 -29.999998 -24.944075 -0.514103 0.000000 -0.857728
-16.667133 30.000002 -24.944071 -0.514103 0.000000 -0.857728
-16.667133 30.000002 -24.944071 -0.595701 0.000000 -0.803207
-16.667133 -29.999998 -24.944075 -0.595701 0.000000 -0.803207
-19.031824 -29.999998 -23.190294 -0.595701 0.000000 -0.803207
-19.031824 30.000002 -23.190290 -0.595701 0.000000 -0.803207
-19.031824 30.000002 -23.190290 -0.671559 0.000000 -0.740951
-19.031824 -29.999998 -23.190294 -0.671559 0.000000 -0.740951
-21.213228 -30.000000 -21.213182 -0.671559 0.000000 -0.740951
-21.213228 30.000000 -21.213179 -0.671559 0.000000 -0.740951
-21.213228 30.000000 -21.213179 -0.740952 0.000000 -0.671558
-21.213228 -30.000000 -21.213182 -0.740952 0.000000 -0.671558
-23.190331 -30.000000 -19.031778 -0.740952 0.000000 -0.671558
-23.190331 30.000000 -19.031775 -0.740952 0.000000 -0.671558
-23.190331 30.000000 -19.031775 -0.803208 0.000000 -0.595699
-23.190331 -30.000000 -19.031778 -0.803208 0.000000 -0.595699
-24.944099 -30.000000 -16.667091 -0.803208 0.000000 -0.595699
-24.944099 30.000000 -16.667088 -0.803208 0.000000 -0.595699
-24.944099 30.000000 -16.667088 -0.857729 0.000000 -0.514102
-24.944099 -30.000000 -16.667091 -0.857729 0.000000 -0.514102
-26.457645 -30.000000 -14.141889 -0.857729 0.000000 -0.514102
-26.457645 30.000000 -14.141887 -0.857729 0.000000 -0.514102
-26.457645 30.000000 -14.141887 -0.903989 0.000000 -0.427555
-26.457645 -30.000000 -14.141889 -0.903989 0.000000 -0.427555
-27.716391 -30.000000 -11.480494 -0.903989 0.000000 -0.427555
-27.716391 30.000000 -11.480493 -0.903989 0.000000 -0.427555
-27.716391 30.000000 -11.480493 -0.941544 0.000000 -0.336889
-27.716391 -30.000000 -11.480494 -0.941544 0.000000 -0.336889
-28.708210 -30.000000 -8.708537 -0.941544 0.000000 -0.336889
-28.708210 30.000000 -8.708535 -0.941544 0.000000 -0.336889
-28.708210 30.000000 -8.708535 -0.970031 0.000000 -0.242980
-28.708210 -30.000000 -8.708537 -0.970031 0.000000 -0.242980
-29.423557 -30.000000 -5.852713 -0.970031 0.000000 -0.242980
-29.423557 30.000000 -5.852710 -0.970031 0.000000 -0.242980
-29.423557 30.000000 -5.852710 -0.989176 0.000000 -0.146731
-29.423557 -30.000000 -5.852713 -0.989176 0.000000 -0.146731
-29.855541 -30.000000 -2.940523 -0.989176 0.000000 -0.146731
-29.855541 30.000000 -2.940521 -0.989176 0.000000 -0.146731
-29.855541 30.000000 -2.940521 -0.998795 0.000000 -0.049068
-29.855541 -30.000000 -2.940523 -0.998795 0.000000 -0.049068
-30.000000 -30.000000 -0.000015 -0.998795 0.000000 -0.049068
-30.000000 30.000000 -0.000013 -0.998795 0.000000 -0.049068
-30.000000 30.000000 -0.000013 -0.998795 -0.000000 0.049067
-30.000000 -30.000000 -0.000015 -0.998795 -0.000000 0.049067
-29.855543 -30.000000 2.940493 -0.998795 -0.000000 0.049067
-29.855543 30.000000 2.940496 -0.998795 -0.000000 0.049067
-29.855543 30.000000 2.940496 -0.989177 -0.000000 0.146730
-29.855543 -30.000000 2.940493 -0.989177 -0.000000 0.146730
-29.423563 -30.000000 5.852683 -0.989177 -0.000000 0.146730
-29.423563 30.000000 5.852685 -0.989177 -0.000000 0.146730
-29.423563 30.000000 5.852685 -0.970031 -0.000000 0.242979
-29.423563 -30.000000 5.852683 -0.970031 -0.000000 0.242979
-28.708220 -30.000000 8.708508 -0.970031 -0.000000 0.242979
-28.708220 30.000000 8.708510 -0.970031 -0.000000 0.242979
-28.708220 30.000000 8.708510 -0.941545 -0.000000 0.336888
-28.708220 -30.000000 8.708508 -0.941545 -0.000000 0.336888
-27.716402 -30.000000 11.480467 -0.941545 -0.000000 0.336888
-27.716402 30.000000 11.480469 -0.941545 -0.000000 0.336888
-27.716402 30.000000 11.480469 -0.903990 -0.000000 0.427554
-27.716402 -30.000000 11.480467 -0.903990 -0.000000 0.427554
-26.457659 -30.000000 14.141863 -0.903990 -0.000000 0.427554
-26.457659 30.000000 14.141865 -0.903990 -0.000000 0.427554
-26.457659 30.000000 14.141865 -0.857729 -0.000000 0.514101
-26.457659 -30.000000 14.141863 -0.857729 -0.000000 0.514101
-24.944117 -30.000000 16.667065 -0.857729 -0.000000 0.514101
-24.944117 30.000000 16.667068 -0.857729 -0.000000 0.514101
-24.944117 30.000000 16.667068 -0.803208 -0.000000 0.595698
-24.944117 -30.000000 16.667065 -0.803208 -0.000000 0.595698
-23.190350 -30.000000 19.031754 -0.803208 -0.000000 0.595698
-23.190350 30.000000 19.031757 -0.803208 -0.000000 0.595698
-23.190350 30.000000 19.031757 -0.740952 -0.000000 0.671558
-23.190350 -30.000000 19.031754 -0.740952 -0.000000 0.671558
-21.213247 -30.000000 21.213158 -0.740952 -0.000000 0.671558
-21.213247 30.000000 21.213161 -0.740952 -0.000000 0.671558
-21.213247 30.000000 21.213161 -0.671560 -0.000000 0.740950
-21.213247 -30.000000 21.213158 -0.671560 -0.000000 0.740950
-19.031851 -30.000002 23.190268 -0.671560 -0.000000 0.740950
-19.031851 29.999998 23.190271 -0.671560 -0.000000 0.740950
-19.031851 29.999998 23.190271 -0.595701 -0.000000 0.803206
-19.031851 -30.000002 23.190268 -0.595701 -0.000000 0.803206
-16.667168 -30.000002 24.944044 -0.595701 -0.000000 0.803206
-16.667168 29.999998 24.944048 -0.595701 -0.000000 0.803206
-16.667168 29.999998 24.944048 -0.514106 -0.000000 0.857727
-16.667168 -30.000002 24.944044 -0.514106 -0.000000 0.857727
-14.141972 -30.000002 26.457600 -0.514106 -0.000000 0.857727
-14.141972 29.999998 26.457603 -0.514106 -0.000000 0.857727
-14.141972 29.999998 26.457603 -0.427557 -0.000000 0.903988
-14.141972 -30.000002 26.457600 -0.427557 -0.000000 0.903988
-11.480581 -30.000002 27.716351 -0.427557 -0.000000 0.903988
-11.480581 29.999998 27.716354 -0.427557 -0.000000 0.903988
-11.480581 29.999998 27.716354 -0.336893 -0.000000 0.941543
-11.480581 -30.000002 27.716351 -0.336893 -0.000000 0.941543
-8.708628 -30.000002 28.708181 -0.336893 -0.000000 0.941543
-8.708628 29.999998 28.708185 -0.336893 -0.000000 0.941543
-8.708628 29.999998 28.708185 -0.242984 -0.000000 0.970030
-8.708628 -30.000002 28.708181 -0.242984 -0.000000 0.970030
-5.852805 -30.000002 29.423538 -0.242984 -0.000000 0.970030
-5.852805 29.999998 29.423542 -0.242984 -0.000000 0.970030
5.852710 -30.000002 29.423555 0.000000 -1.000000 0.000000
2.940514 -30.000002 29.855539 0.000000 -1.000000 0.000000
0.000000 -30.000002 29.999998 0.000000 -1.000000 0.000000
-2.940617 -30.000002 29.855530 0.000000 -1.000000 0.000000
-5.852805 -30.000002 29.423538 0.000000 -1.000000 0.000000
-8.708628 -30.000002 28.708181 0.000000 -1.000000 0.000000
-11.480581 -30.000002 27.716351 0.000000 -1.000000 0.000000
-14.141972 -30.000002 26.457600 0.000000 -1.000000 0.000000
-16.667168 -30.000002 24.944044 0.000000 -1.000000 0.000000
-16.667168 -30.000002 24.944044 0.000004 -1.000000 -0.000005
-19.031851 -30.000002 23.190268 0.000004 -1.000000 -0.000005
-21.213247 -30.000000 21.213158 0.000004 -1.000000 -0.000005
-21.213247 -30.000000 21.213158 0.000000 -1.000000 0.000000
-23.190350 -30.000000 19.031754 0.000000 -1.000000 0.000000
-24.944117 -30.000000 16.667065 0.000000 -1.000000 0.000000
-26.457659 -30.000000 14.141863 0.000000 -1.000000 0.000000
-27.716402 -30.000000 11.480467 0.000000 -1.000000 0.000000
-28.708220 -30.000000 8.708508 0.000000 -1.000000 0.000000
-29.423563 -30.000000 5.852683 0.000000 -1.000000 0.000000
-29.855543 -30.000000 2.940493 0.000000 -1.000000 0.000000
-30.000000 -30.000000 -0.000015 0.000000 -1.000000 0.000000
-29.855541 -30.000000 -2.940523 0.000000 -1.000000 0.000000
-29.423557 -30.000000 -5.852713 0.000000 -1.000000 0.000000
-28.708210 -30.000000 -8.708537 0.000000 -1.000000 0.000000
-27.716391 -30.000000 -11.480494 0.000000 -1.000000 0.000000
-26.457645 -30.000000 -14.141889 0.000000 -1.000000 0.000000
-24.944099 -30.000000 -16.667091 0.000000 -1.000000 0.000000
-23.190331 -30.000000 -19.031778 0.000000 -1.000000 0.000000
-21.213228 -30.000000 -21.213182 0.000000 -1.000000 0.000000
-21.213228 -30.000000 -21.213182 -0.000004 -1.000000 -0.000005
-19.031824 -29.999998 -23.190294 -0.000004 -1.000000 -0.000005
-16.667133 -29.999998 -24.944075 -0.000004 -1.000000 -0.000005
-16.667133 -29.999998 -24.944075 0.000000 -1.000000 0.000000
-14.141929 -29.999998 -26.457626 0.000000 -1.000000 0.000000
-11.480530 -29.999998 -27.716375 0.000000 -1.000000 0.000000
-8.708567 -29.999998 -28.708204 0.000000 -1.000000 0.000000
-5.852736 -29.999998 -29.423555 0.000000 -1.000000 0.000000
-2.940539 -29.999998 -29.855541 0.000000 -1.000000 0.000000
-0.000024 -29.999998 -30.000002 0.000000 -1.000000 0.000000
2.940491 -29.999998 -29.855545 0.000000 -1.000000 0.000000
5.852688 -29.999998 -29.423565 0.000000 -1.000000 0.000000
8.708521 -29.999998 -28.708218 0.000000 -1.000000 0.000000
11.480485 -29.999998 -27.716396 0.000000 -1.000000 0.000000
14.141886 -29.999998 -26.457647 0.000000 -1.000000 0.000000
16.667093 -29.999998 -24.944101 0.000000 -1.000000 0.000000
16.667093 -29.999998 -24.944101 0.000004 -1.000000 -0.000005
19.031786 -29.999998 -23.190325 0.000004 -1.000000 -0.000005
21.213192 -30.000000 -21.213215 0.000004 -1.000000 -0.000005
21.213192 -30.000000 -21.213215 0.000000 -1.000000 0.000000
23.190306 -30.000000 -19.031811 0.000000 -1.000000 0.000000
24.944082 -30.000000 -16.667118 0.000000 -1.000000 0.000000
26.457634 -30.000000 -14.141912 0.000000 -1.000000 0.000000
27.716381 -30.000000 -11.480513 0.000000 -1.000000 0.000000
28.708206 -30.000000 -8.708549 0.000000 -1.000000 0.000000
29.423557 -30.000000 -5.852718 0.000000 -1.000000 0.000000
29.855541 -30.000000 -2.940522 0.000000 -1.000000 0.000000
30.000000 -30.000000 -0.000006 0.000000 -1.000000 0.000000
29.855541 -30.000000 2.940509 0.000000 -1.000000 0.000000
29.423559 -30.000000 5.852705 0.000000 -1.000000 0.000000
28.708210 -30.000000 8.708538 0.000000 -1.000000 0.000000
27.716385 -30.000000 11.480502 0.000000 -1.000000 0.000000
26.457638 -30.000000 14.141902 0.000000 -1.000000 0.000000
24.944088 -30.000000 16.667107 0.000000 -1.000000 0.000000
23.190313 -30.000000 19.031797 0.000000 -1.000000 0.000000
21.213203 -30.000000 21.213203 0.000000 -1.000000 0.000000
21.213203 -30.000000 21.213203 -0.000004 -1.000000 -0.000005
19.031797 -30.000002 23.190313 -0.000004 -1.000000 -0.000005
16.667107 -30.000002 24.944086 -0.000004 -1.000000 -0.000005
16.667107 -30.000002 24.944086 0.000000 -1.000000 0.000000
14.141902 -30.000002 26.457636 0.000000 -1.000000 0.000000
11.480504 -30.000002 27.716383 0.000000 -1.000000 0.000000
8.708540 -30.000002 28.708208 0.000000 -1.000000 0.000000
-16.667168 -30.000002 24.944044 -0.000001 -1.000000 0.000001
-21.213247 -30.000000 21.213158 -0.000001 -1.000000 0.000001
-24.944117 -30.000000 16.667065 -0.000001 -1.000000 0.000001
-24.944099 -30.000000 -16.667091 0.000001 -1.000000 0.000001
-21.213228 -30.000000 -21.213182 0.000001 -1.000000 0.000001
-16.667133 -29.999998 -24.944075 0.000001 -1.000000 0.000001
16.667093 -29.999998 -24.944101 -0.000001 -1.000000 0.000001
21.213192 -30.000000 -21.213215 -0.000001 -1.000000 0.000001
24.944082 -30.000000 -16.667118 -0.000001 -1.000000 0.000001
24.944088 -30.000000 16.667107 0.000001 -1.000000 0.000001
21.213203 -30.000000 21.213203 0.000001 -1.000000 0.000001
16.667107 -30.000002 24.944086 0.000001 -1.000000 0.000001
-5.852805 29.999998 29.423542 -0.146734 -0.000000 0.989176
-5.852805 -30.000002 29.423538 -0.146734 -0.000000 0.989176
-2.940617 -30.000002 29.855530 -0.146734 -0.000000 0.989176
-2.940617 29.999998 29.855534 -0.146734 -0.000000 0.989176
0.000000 -30.000002 29.999998 -0.049069 -0.000000 0.998795
0.000000 29.999998 30.000002 -0.049069 -0.000000 0.998795
-2.940617 29.999998 29.855534 -0.049069 -0.000000 0.998795
-2.940617 -30.000002 29.855530 -0.049069 -0.000000 0.998795
-2.940617 29.999998 29.855534 0.000000 1.000000 0.000000
0.000000 29.999998 30.000002 0.000000 1.000000 0.000000
2.940514 29.999998 29.855543 0.000000 1.000000 0.000000
5.852710 29.999998 29.423559 0.000000 1.000000 0.000000
8.708540 29.999998 28.708212 0.000000 1.000000 0.000000
11.480504 29.999998 27.716387 0.000000 1.000000 0.000000
14.141902 29.999998 26.457640 0.000000 1.000000 0.000000
16.667107 29.999998 24.944090 0.000000 1.000000 0.000000
19.031797 29.999998 23.190317 0.000000 1.000000 0.000000
19.031797 29.999998 23.190317 -0.000005 1.000000 -0.000004
21.213203 30.000000 21.213207 -0.000005 1.000000 -0.000004
23.190313 30.000000 19.031801 -0.000005 1.000000 -0.000004
23.190313 30.000000 19.031801 0.000000 1.000000 0.000000
24.944088 30.000000 16.667110 0.000000 1.000000 0.000000
26.457638 30.000000 14.141904 0.000000 1.000000 0.000000
27.716385 30.000000 11.480504 0.000000 1.000000 0.000000
28.708210 30.000000 8.708540 0.000000 1.000000 0.000000
29.423559 30.000000 5.852708 0.000000 1.000000 0.000000
29.855541 30.000000 2.940512 0.000000 1.000000 0.000000
30.000000 30.000000 -0.000004 0.000000 1.000000 -0.000000
29.855541 30.000000 -2.940519 0.000000 1.000000 -0.000000
29.423557 30.000000 -5.852715 0.000000 1.000000 0.000000
28.708206 30.000000 -8.708548 0.000000 1.000000 0.000000
27.716381 30.000000 -11.480511 0.000000 1.000000 0.000000
26.457634 30.000000 -14.141911 0.000000 1.000000 0.000000
24.944082 30.000000 -16.667114 0.000000 1.000000 0.000000
23.190306 30.000000 -19.031807 0.000000 1.000000 0.000000
23.190306 30.000000 -19.031807 0.000005 1.000000 -0.000004
21.213192 30.000000 -21.213211 0.000005 1.000000 -0.000004
19.031786 30.000002 -23.190321 0.000005 1.000000 -0.000004
19.031786 30.000002 -23.190321 0.000000 1.000000 0.000000
16.667093 30.000002 -24.944098 0.000000 1.000000 0.000000
14.141886 30.000002 -26.457644 0.000000 1.000000 0.000000
11.480485 30.000002 -27.716393 0.000000 1.000000 0.000000
8.708521 30.000002 -28.708214 0.000000 1.000000 0.000000
5.852688 30.000002 -29.423561 0.000000 1.000000 0.000000
2.940491 30.000002 -29.855541 0.000000 1.000000 0.000000
-0.000024 30.000002 -29.999998 -0.000000 1.000000 0.000000
-2.940539 30.000002 -29.855537 -0.000000 1.000000 0.000000
-5.852736 30.000002 -29.423552 0.000000 1.000000 0.000000
-8.708567 30.000002 -28.708200 0.000000 1.000000 0.000000
-11.480530 30.000002 -27.716372 0.000000 1.000000 0.000000
-14.141929 30.000002 -26.457623 0.000000 1.000000 0.000000
-16.667133 30.000002 -24.944071 0.000000 1.000000 0.000000
-19.031824 30.000002 -23.190290 0.000000 1.000000 0.000000
-19.031824 30.000002 -23.190290 -0.000005 1.000000 -0.000004
-21.213228 30.000000 -21.213179 -0.000005 1.000000 -0.000004
-23.190331 30.000000 -19.031775 -0.000005 1.000000 -0.000004
-23.190331 30.000000 -19.031775 0.000000 1.000000 0.000000
-24.944099 30.000000 -16.667088 0.000000 1.000000 0.000000
-26.457645 30.000000 -14.141887 0.000000 1.000000 0.000000
-27.716391 30.000000 -11.480493 0.000000 1.000000 0.000000
-28.708210 30.000000 -8.708535 0.000000 1.000000 0.000000
-29.423557 30.000000 -5.852710 0.000000 1.000000 0.000000
-29.855541 30.000000 -2.940521 0.000000 1.000000 0.000000
-30.000000 30.000000 -0.000013 0.000000 1.000000 0.000000
-29.855543 30.000000 2.940496 0.000000 1.000000 0.000000
-29.423563 30.000000 5.852685 0.000000 1.000000 0.000000
-28.708220 30.000000 8.708510 0.000000 1.000000 0.000000
-27.716402 30.000000 11.480469 0.000000 1.000000 0.000000
-26.457659 30.000000 14.141865 0.000000 1.000000 0.000000
-24.944117 30.000000 16.667068 0.000000 1.000000 0.000000
-23.190350 30.000000 19.031757 0.000000 1.000000 0.000000
-23.190350 30.000000 19.031757 0.000005 1.000000 -0.000004
-21.213247 30.000000 21.213161 0.000005 1.000000 -0.000004
-19.031851 29.999998 23.190271 0.000005 1.000000 -0.000004
-19.031851 29.999998 23.190271 0.000000 1.000000 0.000000
-16.667168 29.999998 24.944048 0.000000 1.000000 0.000000
-14.141972 29.999998 26.457603 0.000000 1.000000 0.000000
-11.480581 29.999998 27.716354 0.000000 1.000000 0.000000
-8.708628 29.999998 28.708185 0.000000 1.000000 0.000000
-5.852805 29.999998 29.423542 0.000000 1.000000 0.000000
19.031797 29.999998 23.190317 -0.000001 1.000000 -0.000001
23.190313 30.000000 19.031801 -0.000001 1.000000 -0.000001
26.457638 30.000000 14.141904 -0.000001 1.000000 -0.000001
23.190306 30.000000 -19.031807 -0.000001 1.000000 0.000001
19.031786 30.000002 -23.190321 -0.000001 1.000000 0.000001
14.141886 30.000002 -26.457644 -0.000001 1.000000 0.000001
-19.031824 30.000002 -23.190290 -0.000001 1.000000 -0.000001
-23.190331 30.000000 -19.031775 -0.000001 1.000000 -0.000001
-26.457645 30.000000 -14.141887 -0.000001 1.000000 -0.000001
-23.190350 30.000000 19.031757 -0.000001 1.000000 0.000001
-19.031851 29.999998 23.190271 -0.000001 1.000000 0.000001
-14.141972 29.999998 26.457603 -0.000001 1.000000 0.000001
4 0 1 2 3
4 4 5 6 7
4 8 9 10 11
4 12 13 14 15
4 16 17 18 19
4 20 21 22 23
4 24 25 26 27
4 28 29 30 31
4 32 33 34 35
4 36 37 38 39
4 40 41 42 43
4 44 45 46 47
4 48 49 50 51
4 52 53 54 55
4 56 57 58 59
4 60 61 62 63
4 64 65 66 67
4 68 69 70 71
4 72 73 74 75
4 76 77 78 79
4 80 81 82 83
4 84 85 86 87
4 88 89 90 91
4 92 93 94 95
4 96 97 98 99
4 100 101 102 103
4 104 105 106 107
4 108 109 110 111
4 112 113 114 115
4 116 117 118 119
4 120 121 122 123
4 124 125 126 127
4 128 129 130 131
4 132 133 134 135
4 136 137 138 139
4 140 141 142 143
4 144 145 146 147
4 148 149 150 151
4 152 153 154 155
4 156 157 158 159
4 160 161 162 163
4 164 165 166 167
4 168 169 170 171
4 172 173 174 175
4 176 177 178 179
4 180 181 182 183
4 184 185 186 187
4 188 189 190 191
4 192 193 194 195
4 196 197 198 199
4 200 201 202 203
4 204 205 206 207
4 208 209 210 211
4 212 213 214 215
4 216 217 218 219
4 220 221 222 223
4 224 225 226 227
4 228 229 230 231
4 232 233 234 235
4 236 237 238 239
4 240 241 242 243
4 244 245 246 247
3 248 249 250
3 250 251 252
3 252 253 254
3 254 255 256
3 257 258 259
3 260 261 262
3 262 263 264
3 264 265 266
3 266 267 268
3 268 269 270
3 270 271 272
3 272 273 274
3 274 275 276
3 277 278 279
3 280 281 282
3 282 283 284
3 284 285 286
3 286 287 288
3 288 289 290
3 290 291 292
3 293 294 295
3 296 297 298
3 298 299 300
3 300 301 302
3 302 303 304
3 304 305 306
3 306 307 308
3 308 309 310
3 310 311 312
3 313 314 315
3 316 317 318
3 318 319 248
3 248 250 252
3 252 254 256
3 320 321 322
3 262 264 266
3 266 268 270
3 270 272 274
3 323 324 325
3 280 282 284
3 284 286 288
3 288 290 292
3 326 327 328
3 298 300 302
3 302 304 306
3 306 308 310
3 329 330 331
3 316 318 248
3 248 252 256
3 256 262 266
3 266 270 274
3 274 280 284
3 284 288 292
3 292 298 302
3 302 306 310
3 310 316 248
3 248 256 266
3 266 274 284
3 284 292 302
3 302 310 248
3 248 266 284
3 284 302 248
4 332 333 334 335
4 336 337 338 339
3 340 341 342
3 342 343 344
3 344 345 346
3 346 347 348
3 349 350 351
3 352 353 354
3 354 355 356
3 356 357 358
3 358 359 360
3 360 361 362
3 362 363 364
3 364 365 366
3 367 368 369
3 370 371 372
3 372 373 374
3 374 375 376
3 376 377 378
3 378 379 380
3 380 381 382
3 382 383 384
3 385 386 387
3 388 389 390
3 390 391 392
3 392 393 394
3 394 395 396
3 396 397 398
3 398 399 400
3 400 401 402
3 403 404 405
3 406 407 408
3 408 409 410
3 410 411 340
3 340 342 344
3 344 346 348
3 412 413 414
3 354 356 358
3 358 360 362
3 362 364 366
3 415 416 417
3 372 374 376
3 376 378 380
3 380 382 384
3 418 419 420
3 390 392 394
3 394 396 398
3 398 400 402
3 421 422 423
3 408 410 340
3 340 344 348
3 348 354 358
3 358 362 366
3 366 372 376
3 376 380 384
3 384 390 394
3 394 398 402
3 402 408 340
3 340 348 358
3 358 366 376
3 376 384 394
3 394 402 340
3 340 358 376
3 376 394 340
